<mxfile host="app.diagrams.net" modified="2023-11-28T02:35:36.301Z" agent="Mozilla/5.0 (Macintosh; Intel Mac OS X 10_15_7) AppleWebKit/537.36 (KHTML, like Gecko) Chrome/119.0.0.0 Safari/537.36" etag="MkdOOZDZo_QM7JE0TFmz" version="22.1.4" type="device">
  <diagram name="Page-1" id="u_VnsBWBYhwkrqQv2ytk">
    <mxGraphModel dx="1088" dy="642" grid="1" gridSize="10" guides="1" tooltips="1" connect="1" arrows="1" fold="1" page="1" pageScale="1" pageWidth="850" pageHeight="1100" math="0" shadow="0">
      <root>
        <mxCell id="0" />
        <mxCell id="1" parent="0" />
        <mxCell id="w1GGjTfIHyrQd2LgTK3m-5" value="SEA Spoke" style="shape=image;verticalLabelPosition=bottom;labelBackgroundColor=none;verticalAlign=top;imageAspect=0;image=data:image/png,iVBORw0KGgoAAAANSUhEUgAAANkAAADnCAYAAACTzvOrAAAACXBIWXMAABYlAAAWJQFJUiTwAAAGuWlUWHRYTUw6Y29tLmFkb2JlLnhtcAAAAAAAPD94cGFja2V0IGJlZ2luPSLvu78iIGlkPSJXNU0wTXBDZWhpSHpyZVN6TlRjemtjOWQiPz4gPHg6eG1wbWV0YSB4bWxuczp4PSJhZG9iZTpuczptZXRhLyIgeDp4bXB0az0iQWRvYmUgWE1QIENvcmUgNi4wLWMwMDYgNzkuZGFiYWNiYiwgMjAyMS8wNC8xNC0wMDozOTo0NCAgICAgICAgIj4gPHJkZjpSREYgeG1sbnM6cmRmPSJodHRwOi8vd3d3LnczLm9yZy8xOTk5LzAyLzIyLXJkZi1zeW50YXgtbnMjIj4gPHJkZjpEZXNjcmlwdGlvbiByZGY6YWJvdXQ9IiIgeG1sbnM6eG1wPSJodHRwOi8vbnMuYWRvYmUuY29tL3hhcC8xLjAvIiB4bWxuczpkYz0iaHR0cDovL3B1cmwub3JnL2RjL2VsZW1lbnRzLzEuMS8iIHhtbG5zOnBob3Rvc2hvcD0iaHR0cDovL25zLmFkb2JlLmNvbS9waG90b3Nob3AvMS4wLyIgeG1sbnM6eG1wTU09Imh0dHA6Ly9ucy5hZG9iZS5jb20veGFwLzEuMC9tbS8iIHhtbG5zOnN0RXZ0PSJodHRwOi8vbnMuYWRvYmUuY29tL3hhcC8xLjAvc1R5cGUvUmVzb3VyY2VFdmVudCMiIHhtcDpDcmVhdG9yVG9vbD0iQWRvYmUgUGhvdG9zaG9wIDIyLjQgKE1hY2ludG9zaCkiIHhtcDpDcmVhdGVEYXRlPSIyMDIzLTAxLTE0VDExOjA2OjM2LTA4OjAwIiB4bXA6TW9kaWZ5RGF0ZT0iMjAyMy0xMS0yN1QxODoyNjoyOS0wODowMCIgeG1wOk1ldGFkYXRhRGF0ZT0iMjAyMy0xMS0yN1QxODoyNjoyOS0wODowMCIgZGM6Zm9ybWF0PSJpbWFnZS9wbmciIHBob3Rvc2hvcDpDb2xvck1vZGU9IjMiIHBob3Rvc2hvcDpJQ0NQcm9maWxlPSJzUkdCIElFQzYxOTY2LTIuMSIgeG1wTU06SW5zdGFuY2VJRD0ieG1wLmlpZDowNGU2NDY5Ni02MDlhLTQxOGEtYTljMy0wYzA1ZjUwYjQ3NWQiIHhtcE1NOkRvY3VtZW50SUQ9InhtcC5kaWQ6NDk3ZGNiZjEtYmUxYy00MDMyLTk5ODMtMGI2ODQ5YmNhNTZkIiB4bXBNTTpPcmlnaW5hbERvY3VtZW50SUQ9InhtcC5kaWQ6NDk3ZGNiZjEtYmUxYy00MDMyLTk5ODMtMGI2ODQ5YmNhNTZkIj4gPHhtcE1NOkhpc3Rvcnk+IDxyZGY6U2VxPiA8cmRmOmxpIHN0RXZ0OmFjdGlvbj0iY3JlYXRlZCIgc3RFdnQ6aW5zdGFuY2VJRD0ieG1wLmlpZDo0OTdkY2JmMS1iZTFjLTQwMzItOTk4My0wYjY4NDliY2E1NmQiIHN0RXZ0OndoZW49IjIwMjMtMDEtMTRUMTE6MDY6MzYtMDg6MDAiIHN0RXZ0OnNvZnR3YXJlQWdlbnQ9IkFkb2JlIFBob3Rvc2hvcCAyMi40IChNYWNpbnRvc2gpIi8+IDxyZGY6bGkgc3RFdnQ6YWN0aW9uPSJzYXZlZCIgc3RFdnQ6aW5zdGFuY2VJRD0ieG1wLmlpZDo3YzE2ZGY4Zi1kODMzLTRmNTgtOWRkMS03M2YzY2NiMDcyOGQiIHN0RXZ0OndoZW49IjIwMjMtMTAtMjZUMDU6MjY6MDUtMDc6MDAiIHN0RXZ0OnNvZnR3YXJlQWdlbnQ9IkFkb2JlIFBob3Rvc2hvcCAyMi40IChNYWNpbnRvc2gpIiBzdEV2dDpjaGFuZ2VkPSIvIi8+IDxyZGY6bGkgc3RFdnQ6YWN0aW9uPSJzYXZlZCIgc3RFdnQ6aW5zdGFuY2VJRD0ieG1wLmlpZDowNGU2NDY5Ni02MDlhLTQxOGEtYTljMy0wYzA1ZjUwYjQ3NWQiIHN0RXZ0OndoZW49IjIwMjMtMTEtMjdUMTg6MjY6MjktMDg6MDAiIHN0RXZ0OnNvZnR3YXJlQWdlbnQ9IkFkb2JlIFBob3Rvc2hvcCAyMi40IChNYWNpbnRvc2gpIiBzdEV2dDpjaGFuZ2VkPSIvIi8+IDwvcmRmOlNlcT4gPC94bXBNTTpIaXN0b3J5PiA8L3JkZjpEZXNjcmlwdGlvbj4gPC9yZGY6UkRGPiA8L3g6eG1wbWV0YT4gPD94cGFja2V0IGVuZD0iciI/Pveg5I8AAAUFSURBVHja7d2xaxNRAMfx+wt0VFwUxEUURB3UxcwGOgjF4CQSKG5xkjpIsVSLU0cLDh1cCnVwsUuFVKJ0KbWLdRBKFocKbRYFF89rZ01fEkLfvXx+8B2bgyOfpe/CZddaZ+9c/3iuofDOr5yoHV/KKlJAl7LqxpW9u1uVXOFd/XAmL26eFFITMsgEGWSCDDIJMsgEGWSCTJAJMsgEGWSCTJAJMsgEGWQSZJCp9Mhefp/N3/xY6KvQa/T7+aHX6Pb38+25/PmXqSjzpc5iu3/DQbb183Pe70KvMciG/flHOciy2O4fZJBBBhlkkEEGGWSQQQYZZJBBBhlkkEEGmXMy52TOyUbonMwTHxJkkAkyyAQZZBJkkAkyyASZIBNkkAkyyAQZZJAJMsgEGWQSZJAJMsgEmSBTJMiWd5cOfriZauudtby101SCjcQvo80S+2U5ZGaQmUEGmUEGmRlkZpBBZpA5jHYYLU98QCbIBJkgg0yQQSZBBpnKj2yQt7qUoZjf6qKp0Xiri3Myc04GmRlkZpBBZpBBZgaZGWSQGWRRIpvcrufT7UayTWzW8upqRQnmiQ9PfMgTH5BJkEEmyCATZJBBJsggE2SQCTJBJsggE2SQSZBBJsggUwrIsuKLox4qkGXFzZOCggwyQQaZSo7swsrJ7OL7U+qh0++O+fIIMsgEGWQaIWRPii/OgsIrkM0VN29KCuieczLnZHIYDZkgg0yCDDJBBpkgE2SCDDJBBpkgE2SCDDJBBpkEGWSCDDJB1r3l3aWDt232Uy9v8xzmNbr9/XpnLW/tNKPMlzqL7f7F9zrb0GsMsmF/fmKvYy1d3hkNGWSQQQYZZJBBBhlkkEEGGWSQQQYZZJBB9t8mt+v5dLvRV6HX6PfzQ6/R7e8nNmt5dbUSZZBlsd0/T3x44kMeq4JMkEEmQQaZIINMkAkyQQaZIINMkAkyQQaZIINMggwyQQaZIIPMl0eQQaakkQ3yo02zxH70CpkZZGaQQWaQQWYGmRlkkBlkqbw6qQzF/OokNUfj1UkOoyXIIBNkkAkyyCTIIBNkkAky/8L3L3z/wncYbeaJDzPIIDODzAwyyAwyyMwgM4NMDqMFGWSCDDJBJsgEGWSCDDIJMsgEGWSCDDIJMsgEGWSCTJAJMsgUP7Ks+OKohwpkWXHzpKAgg0yQQaaSI5t5Xc8eLo6rhx7N17LHz8alQ5t9eh8yyAQZZEoA2dfii9NReAWyb8UNbEqHVSB7ldU+3fzj7Ms5mYbTrReX9yCDTJBBJsggkyCDTJBBJsgEmSCDTJBBJsgEmSCDTJBBJkEGmUqPbHl36eBtm/3Uy9s8h3mNbn+/3lnLWzvNKPPFzqK6f0NDNsjrbEOvMciG/fmJvY61dMV0/yCDDDLIIIMMMsgggwwyyCCDDDLIIIMMMsgcRjuMlic+IBNkgkyQQSbIIJMgg0yQQSbIBJkgg0yQQSbIBJkgg0yQQSbIIINMkEEmyP7V5HY9n243km1is5ZXVytKsJH40aZZSj96hcwMMjPIIDPIIDODzAwyyAyyhF6dVIZifnWSmqPx6iRPfEiQQSbIIBNkkEmQQSbIIBNkzsnMORlkZpCZQQaZGWRmkEFmkEFmlhAyT+HLU/gOox1GyxMfkAkyyCTIIBNkkAkyQSbIIBNkkAkyyCATZJAJMsgkyCDTESF78Hbs1z40hXd78cbv/ZsnHVZjZmzjL2DbkyDv2TFIAAAAAElFTkSuQmCC;fontStyle=1;fontColor=#12ac00;" vertex="1" parent="1">
          <mxGeometry width="80" height="85.15" as="geometry" />
        </mxCell>
        <mxCell id="7oXHpIidxfNM3pCjyfbW-4" value="NYC Spoke" style="shape=image;verticalLabelPosition=bottom;labelBackgroundColor=none;verticalAlign=top;aspect=fixed;imageAspect=0;image=data:image/png,iVBORw0KGgoAAAANSUhEUgAAANkAAADnCAYAAACTzvOrAAAACXBIWXMAABYlAAAWJQFJUiTwAAAF6mlUWHRYTUw6Y29tLmFkb2JlLnhtcAAAAAAAPD94cGFja2V0IGJlZ2luPSLvu78iIGlkPSJXNU0wTXBDZWhpSHpyZVN6TlRjemtjOWQiPz4gPHg6eG1wbWV0YSB4bWxuczp4PSJhZG9iZTpuczptZXRhLyIgeDp4bXB0az0iQWRvYmUgWE1QIENvcmUgNi4wLWMwMDYgNzkuZGFiYWNiYiwgMjAyMS8wNC8xNC0wMDozOTo0NCAgICAgICAgIj4gPHJkZjpSREYgeG1sbnM6cmRmPSJodHRwOi8vd3d3LnczLm9yZy8xOTk5LzAyLzIyLXJkZi1zeW50YXgtbnMjIj4gPHJkZjpEZXNjcmlwdGlvbiByZGY6YWJvdXQ9IiIgeG1sbnM6eG1wPSJodHRwOi8vbnMuYWRvYmUuY29tL3hhcC8xLjAvIiB4bWxuczpkYz0iaHR0cDovL3B1cmwub3JnL2RjL2VsZW1lbnRzLzEuMS8iIHhtbG5zOnBob3Rvc2hvcD0iaHR0cDovL25zLmFkb2JlLmNvbS9waG90b3Nob3AvMS4wLyIgeG1sbnM6eG1wTU09Imh0dHA6Ly9ucy5hZG9iZS5jb20veGFwLzEuMC9tbS8iIHhtbG5zOnN0RXZ0PSJodHRwOi8vbnMuYWRvYmUuY29tL3hhcC8xLjAvc1R5cGUvUmVzb3VyY2VFdmVudCMiIHhtcDpDcmVhdG9yVG9vbD0iQWRvYmUgUGhvdG9zaG9wIDIyLjQgKE1hY2ludG9zaCkiIHhtcDpDcmVhdGVEYXRlPSIyMDIzLTAxLTE0VDExOjA2OjM2LTA4OjAwIiB4bXA6TW9kaWZ5RGF0ZT0iMjAyMy0xMC0yNlQwNToyNjowNS0wNzowMCIgeG1wOk1ldGFkYXRhRGF0ZT0iMjAyMy0xMC0yNlQwNToyNjowNS0wNzowMCIgZGM6Zm9ybWF0PSJpbWFnZS9wbmciIHBob3Rvc2hvcDpDb2xvck1vZGU9IjMiIHBob3Rvc2hvcDpJQ0NQcm9maWxlPSJzUkdCIElFQzYxOTY2LTIuMSIgeG1wTU06SW5zdGFuY2VJRD0ieG1wLmlpZDo3YzE2ZGY4Zi1kODMzLTRmNTgtOWRkMS03M2YzY2NiMDcyOGQiIHhtcE1NOkRvY3VtZW50SUQ9InhtcC5kaWQ6NDk3ZGNiZjEtYmUxYy00MDMyLTk5ODMtMGI2ODQ5YmNhNTZkIiB4bXBNTTpPcmlnaW5hbERvY3VtZW50SUQ9InhtcC5kaWQ6NDk3ZGNiZjEtYmUxYy00MDMyLTk5ODMtMGI2ODQ5YmNhNTZkIj4gPHhtcE1NOkhpc3Rvcnk+IDxyZGY6U2VxPiA8cmRmOmxpIHN0RXZ0OmFjdGlvbj0iY3JlYXRlZCIgc3RFdnQ6aW5zdGFuY2VJRD0ieG1wLmlpZDo0OTdkY2JmMS1iZTFjLTQwMzItOTk4My0wYjY4NDliY2E1NmQiIHN0RXZ0OndoZW49IjIwMjMtMDEtMTRUMTE6MDY6MzYtMDg6MDAiIHN0RXZ0OnNvZnR3YXJlQWdlbnQ9IkFkb2JlIFBob3Rvc2hvcCAyMi40IChNYWNpbnRvc2gpIi8+IDxyZGY6bGkgc3RFdnQ6YWN0aW9uPSJzYXZlZCIgc3RFdnQ6aW5zdGFuY2VJRD0ieG1wLmlpZDo3YzE2ZGY4Zi1kODMzLTRmNTgtOWRkMS03M2YzY2NiMDcyOGQiIHN0RXZ0OndoZW49IjIwMjMtMTAtMjZUMDU6MjY6MDUtMDc6MDAiIHN0RXZ0OnNvZnR3YXJlQWdlbnQ9IkFkb2JlIFBob3Rvc2hvcCAyMi40IChNYWNpbnRvc2gpIiBzdEV2dDpjaGFuZ2VkPSIvIi8+IDwvcmRmOlNlcT4gPC94bXBNTTpIaXN0b3J5PiA8L3JkZjpEZXNjcmlwdGlvbj4gPC9yZGY6UkRGPiA8L3g6eG1wbWV0YT4gPD94cGFja2V0IGVuZD0iciI/Plpl9xkAAAUCSURBVHja7d0xaxNhAMfh+wSuipMg7qKbi/kEbsWMIp2cCg4uIkVQSqeKOlStdhCxcBSE4iBVUlFbKFILUh2UkKVDhLSLgovntbOmbxJC33vz/OE3NgdHnqXvhctOPn538dST9xMK7+jd5Xp2Pa9JAZ3Ozi5u7NRefSkU3omHb4vy5kkhNSCDTJBBJsggkyCDTJBBJsgEmSCDTJBBJsgEmSCDTJBBJkEGmSqPbOrzdjH//UdfhV6j388PvUa3v5/52Com32xFmS91Htv9Gw6yT52fRb8LvcYgG/bnH+Ygy2O7f5BBBhlkkEEGGWSQQQYZZJBBBhlkkEEGGWTOyZyTOScboXMyT3xIkEEmyCATZJBJkEEmyCATZIJMkEEmyCATZJBBJsggE2SQSZBBJsggE2SCTJEgy1ud/R9uptra9m7RaLaVYCPxy2izxH5ZDpkZZGaQQWaQQWYGmRlkkBlkDqMdRssTH5AJMkEmyCATZJBJkEGm6iMb5K0uVSjmt7poazTe6uKczJyTQWYGmRlkkBlkkJlBZgYZZAZZlMjGV5vFxHor2epLm0VtbkUJ5okPT3zIEx+QSZBBJsggE2SQQSbIIBNkkAkyQSbIIBNkkEmQQSbIIFMKyLLyi6MeKpFl5c2TwoIMMkEGmardsXvL2fH7r9VDR6Zf+uIIMsgEGWQaIWQ3yi/OvMIrkc2UN29SCuiSczLnZHIYDZkgg0yCDDJBBpkgE2SCDDJBBpkgE2SCDDJBBpkEGWSCDDJB1r281dl/22Y/9fI2z2Feo9vfr23vFo1mO8p8qfPY7l98r7MNvcYgG/bnJ/Y61srlndGQQQYZZJBBBhlkkEEGGWSQQQYZZJBBBhlk/218tVlMrLf6KvQa/X5+6DW6/X19abOoza1EGWR5bPfPEx+e+JDHqiATZJBJkEEmyCATZIJMkEEmyCATZIJMkEEmyCCTIINMkEEmyCDz5RFkkClpZIP8aNMssR+9QmYGmRlkkBlkkJlBZgYZZAZZKq9OqkIxvzpJ7dF4dZLDaAkyyAQZZIIMMgkyyAQZZILMv/D9C9+/8B1Gm3niwwwyyMwgM4MMMoMMMjPIzCCTw2hBBpkgg0yQCTJBBpkgg0yCDDJBBpkgg0yCDDJBBpkgE2SCDDLFjywrvzjqoRJZVt48KSzIIBNkkKnajT99kI09W1AP1WfvZGO3r0oHdnnqCmSQCTLIlACyr+UXZ1fhlci+lTewIR1UiexRdn7xwx9nX87JNJzO3JzegQwyQQaZIINMggwyQQaZIBNkggwyQQaZIBNkggwyQQaZBBlkqjyyvNXZf9tmP/XyNs9hXqPb369t7xaNZjvKfLHzqO7f0JAN8jrb0GsMsmF/fmKvY61cMd0/yCCDDDLIIIMMMsgggwwyyCCDDDLIIIMMMofRDqPliQ/IBJkgE2SQCTLIJMggE2SQCTJBJsggE2SQCTJBJsggE2SQCTLIIBNkkAmyfzW+2iwm1lvJVl/aLGpzK0qwkfjRpllKP3qFzAwyM8ggM8ggM4PMDDLIDLKEXp1UhWJ+dZLao/HqJE98SJBBJsggE2SQSZBBJsggE2TOycw5GWRmkJlBBpkZZGaQQWaQQWaWEDJP4ctT+A6jHUbLEx+QCTLIJMggE2SQCTJBJsggE2SQCTLIIBNkkAkyyCTIINMhIbvw/MWvPWgK79zswu+9mycd1IVb1zb+Ahy1l8wUVqd/AAAAAElFTkSuQmCC;fontStyle=1;fontColor=#007cac;" parent="1" vertex="1">
          <mxGeometry x="280" width="80" height="85.15" as="geometry" />
        </mxCell>
        <mxCell id="7oXHpIidxfNM3pCjyfbW-8" value="" style="endArrow=classic;html=1;rounded=1;strokeWidth=2;" parent="1" edge="1">
          <mxGeometry width="50" height="50" relative="1" as="geometry">
            <mxPoint x="140" y="150" as="sourcePoint" />
            <mxPoint x="80" y="40" as="targetPoint" />
            <Array as="points">
              <mxPoint x="110" y="150" />
              <mxPoint x="110" y="40" />
            </Array>
          </mxGeometry>
        </mxCell>
        <mxCell id="7oXHpIidxfNM3pCjyfbW-12" value="" style="endArrow=classic;html=1;rounded=1;strokeWidth=2;" parent="1" edge="1">
          <mxGeometry width="50" height="50" relative="1" as="geometry">
            <mxPoint x="220" y="150" as="sourcePoint" />
            <mxPoint x="280" y="40" as="targetPoint" />
            <Array as="points">
              <mxPoint x="250" y="150" />
              <mxPoint x="250" y="40" />
            </Array>
          </mxGeometry>
        </mxCell>
        <mxCell id="7oXHpIidxfNM3pCjyfbW-14" value="SFO Hub" style="shape=image;verticalLabelPosition=bottom;labelBackgroundColor=none;verticalAlign=top;aspect=fixed;imageAspect=0;image=data:image/png,iVBORw0KGgoAAAANSUhEUgAAANkAAADnCAYAAACTzvOrAAAACXBIWXMAABYlAAAWJQFJUiTwAAAGx2lUWHRYTUw6Y29tLmFkb2JlLnhtcAAAAAAAPD94cGFja2V0IGJlZ2luPSLvu78iIGlkPSJXNU0wTXBDZWhpSHpyZVN6TlRjemtjOWQiPz4gPHg6eG1wbWV0YSB4bWxuczp4PSJhZG9iZTpuczptZXRhLyIgeDp4bXB0az0iQWRvYmUgWE1QIENvcmUgNi4wLWMwMDYgNzkuZGFiYWNiYiwgMjAyMS8wNC8xNC0wMDozOTo0NCAgICAgICAgIj4gPHJkZjpSREYgeG1sbnM6cmRmPSJodHRwOi8vd3d3LnczLm9yZy8xOTk5LzAyLzIyLXJkZi1zeW50YXgtbnMjIj4gPHJkZjpEZXNjcmlwdGlvbiByZGY6YWJvdXQ9IiIgeG1sbnM6eG1wPSJodHRwOi8vbnMuYWRvYmUuY29tL3hhcC8xLjAvIiB4bWxuczpkYz0iaHR0cDovL3B1cmwub3JnL2RjL2VsZW1lbnRzLzEuMS8iIHhtbG5zOnBob3Rvc2hvcD0iaHR0cDovL25zLmFkb2JlLmNvbS9waG90b3Nob3AvMS4wLyIgeG1sbnM6eG1wTU09Imh0dHA6Ly9ucy5hZG9iZS5jb20veGFwLzEuMC9tbS8iIHhtbG5zOnN0RXZ0PSJodHRwOi8vbnMuYWRvYmUuY29tL3hhcC8xLjAvc1R5cGUvUmVzb3VyY2VFdmVudCMiIHhtcDpDcmVhdG9yVG9vbD0iQWRvYmUgUGhvdG9zaG9wIDIyLjQgKE1hY2ludG9zaCkiIHhtcDpDcmVhdGVEYXRlPSIyMDIzLTAxLTE0VDExOjA2OjM2LTA4OjAwIiB4bXA6TW9kaWZ5RGF0ZT0iMjAyMy0xMC0yNlQwNTozMTo1NC0wNzowMCIgeG1wOk1ldGFkYXRhRGF0ZT0iMjAyMy0xMC0yNlQwNTozMTo1NC0wNzowMCIgZGM6Zm9ybWF0PSJpbWFnZS9wbmciIHBob3Rvc2hvcDpDb2xvck1vZGU9IjMiIHBob3Rvc2hvcDpJQ0NQcm9maWxlPSJzUkdCIElFQzYxOTY2LTIuMSIgeG1wTU06SW5zdGFuY2VJRD0ieG1wLmlpZDo2YTlkMDdjOC1kZDU3LTQ2ZWYtYjI4Mi1kODkwMmY1YTg2ODYiIHhtcE1NOkRvY3VtZW50SUQ9ImFkb2JlOmRvY2lkOnBob3Rvc2hvcDo2Y2I5MWNmZS0xNDk1LTFjNDAtODUwZi0wMjUzNDE2M2Q1ZjEiIHhtcE1NOk9yaWdpbmFsRG9jdW1lbnRJRD0ieG1wLmRpZDo0OTdkY2JmMS1iZTFjLTQwMzItOTk4My0wYjY4NDliY2E1NmQiPiA8eG1wTU06SGlzdG9yeT4gPHJkZjpTZXE+IDxyZGY6bGkgc3RFdnQ6YWN0aW9uPSJjcmVhdGVkIiBzdEV2dDppbnN0YW5jZUlEPSJ4bXAuaWlkOjQ5N2RjYmYxLWJlMWMtNDAzMi05OTgzLTBiNjg0OWJjYTU2ZCIgc3RFdnQ6d2hlbj0iMjAyMy0wMS0xNFQxMTowNjozNi0wODowMCIgc3RFdnQ6c29mdHdhcmVBZ2VudD0iQWRvYmUgUGhvdG9zaG9wIDIyLjQgKE1hY2ludG9zaCkiLz4gPHJkZjpsaSBzdEV2dDphY3Rpb249InNhdmVkIiBzdEV2dDppbnN0YW5jZUlEPSJ4bXAuaWlkOjdjMTZkZjhmLWQ4MzMtNGY1OC05ZGQxLTczZjNjY2IwNzI4ZCIgc3RFdnQ6d2hlbj0iMjAyMy0xMC0yNlQwNToyNjowNS0wNzowMCIgc3RFdnQ6c29mdHdhcmVBZ2VudD0iQWRvYmUgUGhvdG9zaG9wIDIyLjQgKE1hY2ludG9zaCkiIHN0RXZ0OmNoYW5nZWQ9Ii8iLz4gPHJkZjpsaSBzdEV2dDphY3Rpb249InNhdmVkIiBzdEV2dDppbnN0YW5jZUlEPSJ4bXAuaWlkOjZhOWQwN2M4LWRkNTctNDZlZi1iMjgyLWQ4OTAyZjVhODY4NiIgc3RFdnQ6d2hlbj0iMjAyMy0xMC0yNlQwNTozMTo1NC0wNzowMCIgc3RFdnQ6c29mdHdhcmVBZ2VudD0iQWRvYmUgUGhvdG9zaG9wIDIyLjQgKE1hY2ludG9zaCkiIHN0RXZ0OmNoYW5nZWQ9Ii8iLz4gPC9yZGY6U2VxPiA8L3htcE1NOkhpc3Rvcnk+IDwvcmRmOkRlc2NyaXB0aW9uPiA8L3JkZjpSREY+IDwveDp4bXBtZXRhPiA8P3hwYWNrZXQgZW5kPSJyIj8+Ac96QwAABVZJREFUeNrt3bFrnHUcx/H8OUKXOkjHLjXQqaKlxCGDNSoExSBU6FAIFBIHXWoKwaodIkXRJcQgTqUcRS0ZQtKKWiwBqTG95C5X45ITv/pc5lwen4cjz/O71wfe4x3kyfNa7vlxN3L7+WdC/6+4+pKUuxFoIBNkkAkyyCTIIBNkkAkyQSbIIBNkkAkyQSbIIBNkkEmQQSbIIBNkffvl3Zfj8dyVQuV5/5ULp6L55Xzhstf3e//V8dOxs/jpocXanYgflqrZsN/Uc5MH/5+iZa+vA7L9zY0ourzIyiwPstoOsnLXDzLIIIMMMsgggwwyyCCDDDLIIIMMMsgggyxtZJ6TeU7mOZkTH058yLEqyAQZZBJkkAkyyASZIBNkkAkyyAQZOJAJMsgEGWQSZJAJMsgEmSATZJBpOJB1GsvRbTWTLfbaEe0tpdjMWD2Q9W5EszoOMjPIIDPIIDODzAwyyAwyyMzSRrY+MZp0MT918M9Qmjnx4cSHnPiATIIMMkEGmSCDTDpGZJufzEZr+bNkiwd3I1a+VYp5TmbmORlkBhlkZpCZQQaZQQaZGWRmkJXo1ysXY2P2rWSLbz6K+OI9pZhT+E58yIkPyCTIIBNkkAkyyNw4ggwyQQaZIBNkggwyQQaZBBlkGjiyxtkT4ECmQXXj0u5IREgaYC6CBJkEmSTIJMikdJE9fOf8o/uvjT5V/uLz2dX46v070pEtXf/Yw2jPyeTEB2SCDDIJMsgEGWSCTJAJMsgEGWSCTJAJMsgEGWQSZJAJMsgEWf+e3LoW+5sbhcrz/isXTkV3e7Nw2ev7vf/q+Ono7mwdWvzZjmj9Uc2G/aaem4zobBcve30dkGVYii4vsjLLg6y2g6zc9YMMMsgggwwyyCCDDDLIIIMMMsgggwwyyCBLG9m988/1btQi5UX28PJ44fIgezT9+qHF4ocRC9PVDLKIpevFqwsyJz4kyCATZJAJMsgkyCATZJAJMkEmyCATZJAJMnAgE2SQCTLIJMggE2SQCbK8rU+MJl3MT0XMjCnV6oCs22qGWS0HmRlkkBlkkJlBZgYZZAYZZGZpI+s0lnvQUi322hHtLaVYXZA58SFBBpkgg0yQQSZBBpkgg0yQ+QjfR/g+wvcw2syJDzPIIDODzAwyyAwyyMwgM4PMV8L5SjhfCefEhxMfcqwKMkEmyAQZZIIMMgkyyAQZZIIMMgkyyAQZZIJMkKksssbZE+BApkF149LuSERIGmAuggSZBJkkyCTIpHSRff/Cs/9kH+Mrf3Htjf3so1npyG5d/dnDaM/J5MQHZIIMMgkyyAQZZIJMkAkyyAQZZIJMkAkyyAQZZBJkkAkyyARZ/1pfL0S3+Xuhvjt38sj3X3v1TO/XPIuWvb7f+//09ovxd2fn0OKvpxGd7Wo2NzncN3X291fs+g3m52z/w1J0eZGVWR5ktR1klbt+kEEGGWSQQQYZZJBBBhlkkEEGGWSQQQYZZBVClkEpUx5kZTsKWb9iYfrgn1HVhh1Zxa6fEx9OfMixKsgEGWQSZJAJMsgEmSATZJAJMsgEmSATZJAJMsgkyCATZJAJMsikY0W2dvFM/PjmuWSLm5cjPnhFKVYXZPtPHodZLQeZGWSQGWSQmUFmBhlkBhlkZmkj21m82YOWarHbjGj+phRz4sOJDznxAZkEGWSCDDJBBpkbR8eMbH1iNOlifipiZkypVoufTmo1PW+xeg4yM8ggM8ggM4PMDDLIDDLIzNJG1mks96ClWuy1I9pbSrG6IHPiQ4IMMkEGmSCDTIIMMkEGmSATZIIMMkEGmSADBzJBBpkgg0yCDDIdT/8CDb1keCNKG9sAAAAASUVORK5CYII=;fontStyle=1;fontColor=#bf4527;" parent="1" vertex="1">
          <mxGeometry x="140" y="130" width="80" height="85.16" as="geometry" />
        </mxCell>
        <mxCell id="w1GGjTfIHyrQd2LgTK3m-1" value="&lt;font style=&quot;&quot; face=&quot;Ubuntu Mono&quot;&gt;&lt;font style=&quot;&quot; color=&quot;#bf4527&quot;&gt;/SFO_local&lt;br&gt;/SFO_shared&lt;/font&gt;&lt;br&gt;&lt;/font&gt;└/&lt;font style=&quot;font-size: 12px;&quot; face=&quot;Ubuntu Mono&quot;&gt;Production&lt;br&gt;&lt;/font&gt;&lt;span style=&quot;flex-shrink: 0; box-sizing: border-box; padding-left: 8px; margin-right: 8px; user-select: none; float: left; font-weight: 400; display: inline-block !important; min-width: calc(2ch + 16px) !important; padding-right: 8px !important;&quot; data-ds--line-number=&quot;4&quot; class=&quot;comment linenumber ds-line-number&quot;&gt;&lt;/span&gt;&lt;font style=&quot;font-size: 12px;&quot; face=&quot;Ubuntu Mono&quot;&gt;&lt;span style=&quot;font-weight: 400;&quot;&gt;&amp;nbsp; &amp;nbsp;&lt;/span&gt;&lt;span style=&quot;font-weight: normal;&quot;&gt;├─&lt;/span&gt;clip.mp4&lt;br&gt;&lt;/font&gt;&lt;span style=&quot;border-color: var(--border-color); font-family: &amp;quot;Ubuntu Mono&amp;quot;; font-weight: 400;&quot;&gt;&amp;nbsp; &amp;nbsp;└─&lt;/span&gt;&lt;span style=&quot;border-color: var(--border-color); font-family: &amp;quot;Ubuntu Mono&amp;quot;;&quot;&gt;/media&lt;/span&gt;&lt;font style=&quot;font-size: 12px;&quot; face=&quot;Ubuntu Mono&quot;&gt;&lt;span style=&quot;font-weight: 400;&quot;&gt;&lt;br&gt;&lt;/span&gt;&lt;/font&gt;" style="text;html=1;strokeColor=none;fillColor=none;align=left;verticalAlign=middle;whiteSpace=wrap;rounded=0;fontStyle=1;fontColor=#fe8353;labelBackgroundColor=none;" vertex="1" parent="1">
          <mxGeometry x="140" y="245" width="80" height="69" as="geometry" />
        </mxCell>
        <mxCell id="w1GGjTfIHyrQd2LgTK3m-2" value="&lt;font style=&quot;font-size: 12px;&quot; face=&quot;Ubuntu Mono&quot;&gt;&lt;font color=&quot;#007cac&quot;&gt;/NYC_local&lt;br&gt;&lt;/font&gt;&lt;/font&gt;&lt;font style=&quot;border-color: var(--border-color);&quot; face=&quot;Ubuntu Mono&quot;&gt;&lt;font style=&quot;border-color: var(--border-color);&quot; color=&quot;#bf4527&quot;&gt;/SFO_shared&lt;/font&gt;&lt;br style=&quot;border-color: var(--border-color);&quot;&gt;&lt;/font&gt;└/&lt;font style=&quot;border-color: var(--border-color);&quot; face=&quot;Ubuntu Mono&quot;&gt;Production&lt;br style=&quot;border-color: var(--border-color);&quot;&gt;&lt;/font&gt;&lt;font style=&quot;border-color: var(--border-color);&quot; face=&quot;Ubuntu Mono&quot;&gt;&lt;span style=&quot;border-color: var(--border-color); font-weight: 400;&quot;&gt;&amp;nbsp; &amp;nbsp;&lt;/span&gt;&lt;span style=&quot;border-color: var(--border-color); font-weight: normal;&quot;&gt;├─&lt;/span&gt;clip.mp4&lt;br style=&quot;border-color: var(--border-color);&quot;&gt;&lt;/font&gt;&lt;span style=&quot;border-color: var(--border-color); font-family: &amp;quot;Ubuntu Mono&amp;quot;; font-weight: 400;&quot;&gt;&amp;nbsp; &amp;nbsp;└─&lt;/span&gt;&lt;span style=&quot;border-color: var(--border-color); font-family: &amp;quot;Ubuntu Mono&amp;quot;;&quot;&gt;/media&lt;/span&gt;&lt;font style=&quot;font-size: 12px;&quot; face=&quot;Ubuntu Mono&quot;&gt;&lt;span style=&quot;font-weight: 400;&quot;&gt;&lt;br&gt;&lt;/span&gt;&lt;/font&gt;" style="text;html=1;strokeColor=none;fillColor=none;align=left;verticalAlign=middle;whiteSpace=wrap;rounded=0;fontStyle=1;fontColor=#fe8353;labelBackgroundColor=none;" vertex="1" parent="1">
          <mxGeometry x="280" y="115" width="80" height="70" as="geometry" />
        </mxCell>
        <mxCell id="w1GGjTfIHyrQd2LgTK3m-3" value="&lt;font style=&quot;font-size: 12px;&quot; face=&quot;Ubuntu Mono&quot;&gt;&lt;font color=&quot;#12ac00&quot;&gt;/SEA_local&lt;br&gt;&lt;/font&gt;&lt;/font&gt;&lt;font style=&quot;border-color: var(--border-color);&quot; face=&quot;Ubuntu Mono&quot;&gt;&lt;font style=&quot;border-color: var(--border-color);&quot; color=&quot;#bf4527&quot;&gt;/SFO_shared&lt;/font&gt;&lt;br style=&quot;border-color: var(--border-color);&quot;&gt;&lt;/font&gt;└/&lt;font style=&quot;border-color: var(--border-color);&quot; face=&quot;Ubuntu Mono&quot;&gt;Production&lt;br style=&quot;border-color: var(--border-color);&quot;&gt;&lt;/font&gt;&lt;font style=&quot;border-color: var(--border-color);&quot; face=&quot;Ubuntu Mono&quot;&gt;&lt;span style=&quot;border-color: var(--border-color); font-weight: 400;&quot;&gt;&amp;nbsp; &amp;nbsp;&lt;/span&gt;&lt;span style=&quot;border-color: var(--border-color); font-weight: normal;&quot;&gt;├─&lt;/span&gt;clip.mp4&lt;br style=&quot;border-color: var(--border-color);&quot;&gt;&lt;/font&gt;&lt;span style=&quot;border-color: var(--border-color); font-family: &amp;quot;Ubuntu Mono&amp;quot;; font-weight: 400;&quot;&gt;&amp;nbsp; &amp;nbsp;└─&lt;/span&gt;&lt;span style=&quot;border-color: var(--border-color); font-family: &amp;quot;Ubuntu Mono&amp;quot;;&quot;&gt;/media&lt;/span&gt;&lt;font style=&quot;font-size: 12px;&quot; face=&quot;Ubuntu Mono&quot;&gt;&lt;span style=&quot;font-weight: 400;&quot;&gt;&lt;br&gt;&lt;/span&gt;&lt;/font&gt;" style="text;html=1;strokeColor=none;fillColor=none;align=left;verticalAlign=middle;whiteSpace=wrap;rounded=0;fontStyle=1;fontColor=#fe8353;labelBackgroundColor=none;" vertex="1" parent="1">
          <mxGeometry y="115" width="80" height="70" as="geometry" />
        </mxCell>
      </root>
    </mxGraphModel>
  </diagram>
</mxfile>
